<svg width="79" height="28" viewBox="0 0 79 28" fill="none" xmlns="http://www.w3.org/2000/svg">
<path d="M1.826 22V6.49H11.77V8.316H4.114V13.288H11.264V15.114H4.114V22H1.826ZM20.6004 22.198C18.4444 22.198 16.8384 21.6553 15.7824 20.57C14.7411 19.4847 14.2204 17.8787 14.2204 15.752V6.49H16.5084V15.708C16.5084 17.204 16.8311 18.3333 17.4764 19.096C18.1364 19.844 19.1778 20.218 20.6004 20.218C21.9498 20.218 22.9691 19.844 23.6584 19.096C24.3478 18.3333 24.6924 17.204 24.6924 15.708V6.49H26.9364V15.752C26.9364 17.8787 26.4011 19.4847 25.3304 20.57C24.2598 21.6553 22.6831 22.198 20.6004 22.198ZM35.7222 22.198C34.4755 22.198 33.3462 22.044 32.3342 21.736C31.3222 21.4133 30.4422 20.9587 29.6942 20.372L30.4642 18.568C30.9628 18.9493 31.4762 19.2647 32.0042 19.514C32.5468 19.7633 33.1188 19.954 33.7202 20.086C34.3362 20.2033 35.0035 20.262 35.7222 20.262C36.9542 20.262 37.8562 20.042 38.4282 19.602C39.0148 19.162 39.3082 18.5827 39.3082 17.864C39.3082 17.248 39.1028 16.7713 38.6922 16.434C38.2962 16.0967 37.5922 15.8253 36.5802 15.62L34.1822 15.136C32.7595 14.8427 31.6962 14.366 30.9922 13.706C30.3028 13.0313 29.9582 12.1147 29.9582 10.956C29.9582 10.0173 30.2075 9.196 30.7062 8.492C31.2048 7.788 31.8942 7.24533 32.7742 6.864C33.6688 6.48267 34.7102 6.292 35.8982 6.292C36.9982 6.292 38.0102 6.45333 38.9342 6.776C39.8582 7.084 40.6355 7.546 41.2662 8.162L40.5182 9.9C39.8582 9.328 39.1542 8.91 38.4062 8.646C37.6582 8.36733 36.8075 8.228 35.8542 8.228C34.7248 8.228 33.8375 8.46267 33.1922 8.932C32.5615 9.40133 32.2462 10.0393 32.2462 10.846C32.2462 11.4913 32.4442 11.9973 32.8402 12.364C33.2508 12.7307 33.9255 13.0093 34.8642 13.2L37.2622 13.662C38.7435 13.97 39.8362 14.4467 40.5402 15.092C41.2442 15.7227 41.5962 16.5953 41.5962 17.71C41.5962 18.6047 41.3542 19.3893 40.8702 20.064C40.4008 20.7387 39.7262 21.2667 38.8462 21.648C37.9662 22.0147 36.9248 22.198 35.7222 22.198ZM44.408 22V6.49H54.572V8.316H46.63V13.2H54.066V15.048H46.63V20.152H54.572V22H44.408Z" fill="#2563EB"/>
<path d="M56.946 24V16.245H61.962V17.081H57.936V19.644H61.709V20.48H57.936V23.164H61.962V24H56.946ZM63.9343 24V16.245H67.1463C67.9749 16.245 68.6129 16.4393 69.0603 16.828C69.5149 17.2167 69.7423 17.7593 69.7423 18.456C69.7423 18.918 69.6396 19.3103 69.4343 19.633C69.2289 19.9557 68.9393 20.2013 68.5653 20.37C68.1986 20.5387 67.7696 20.623 67.2783 20.623L67.4653 20.469H67.7293C68.0299 20.469 68.2976 20.546 68.5323 20.7C68.7669 20.8467 68.9613 21.0887 69.1153 21.426L70.2153 24H69.0823L68.0153 21.448C67.8906 21.1327 67.7073 20.9273 67.4653 20.832C67.2306 20.7367 66.9336 20.689 66.5743 20.689H64.9573V24H63.9343ZM64.9573 19.897H66.9923C67.5569 19.897 67.9859 19.776 68.2793 19.534C68.5799 19.292 68.7303 18.94 68.7303 18.478C68.7303 18.0233 68.5799 17.6787 68.2793 17.444C67.9859 17.202 67.5569 17.081 66.9923 17.081H64.9573V19.897ZM72.0827 24V16.245H75.2947C76.1234 16.245 76.7577 16.443 77.1977 16.839C77.6377 17.235 77.8577 17.7813 77.8577 18.478C77.8577 19.1747 77.6377 19.7247 77.1977 20.128C76.7577 20.524 76.1234 20.722 75.2947 20.722H73.1057V24H72.0827ZM73.1057 19.886H75.1957C75.7384 19.886 76.1491 19.765 76.4277 19.523C76.7064 19.2737 76.8457 18.9253 76.8457 18.478C76.8457 18.0307 76.7064 17.686 76.4277 17.444C76.1491 17.202 75.7384 17.081 75.1957 17.081H73.1057V19.886Z" fill="#2563EB"/>
</svg>
