<svg width="34" height="36" viewBox="0 0 34 36" fill="none" xmlns="http://www.w3.org/2000/svg">
<path d="M15.9999 32.5C17.4666 32.5 18.6666 31.3 18.6666 29.8333H13.3333C13.3333 31.3 14.5333 32.5 15.9999 32.5ZM23.9999 24.5V17.8333C23.9999 13.74 21.8266 10.3133 17.9999 9.40667V8.5C17.9999 7.39333 17.1066 6.5 15.9999 6.5C14.8933 6.5 13.9999 7.39333 13.9999 8.5V9.40667C10.1866 10.3133 7.99992 13.7267 7.99992 17.8333V24.5L5.33325 27.1667V28.5H26.6666V27.1667L23.9999 24.5ZM21.3333 25.8333H10.6666V17.8333C10.6666 14.5267 12.6799 11.8333 15.9999 11.8333C19.3199 11.8333 21.3333 14.5267 21.3333 17.8333V25.8333Z" fill="#64748B"/>
<path d="M26.0001 11.8334C27.841 11.8334 29.3334 10.341 29.3334 8.50002C29.3334 6.65907 27.841 5.16669 26.0001 5.16669C24.1591 5.16669 22.6667 6.65907 22.6667 8.50002C22.6667 10.341 24.1591 11.8334 26.0001 11.8334Z" fill="#F43F5E"/>
</svg>
