<svg width="33" height="32" viewBox="0 0 33 32" fill="none" xmlns="http://www.w3.org/2000/svg">
<g clip-path="url(#clip0_824_453)">
<path d="M26.3 13.3866C25.3933 8.78665 21.3533 5.33331 16.5 5.33331C12.6467 5.33331 9.3 7.51998 7.63333 10.72C3.62 11.1466 0.5 14.5466 0.5 18.6666C0.5 23.08 4.08667 26.6666 8.5 26.6666H25.8333C29.5133 26.6666 32.5 23.68 32.5 20C32.5 16.48 29.7667 13.6266 26.3 13.3866ZM25.8333 24H8.5C5.55333 24 3.16667 21.6133 3.16667 18.6666C3.16667 15.9333 5.20667 13.6533 7.91333 13.3733L9.34 13.2266L10.0067 11.96C11.2733 9.51998 13.7533 7.99998 16.5 7.99998C19.9933 7.99998 23.0067 10.48 23.6867 13.9066L24.0867 15.9066L26.1267 16.0533C28.2067 16.1866 29.8333 17.9333 29.8333 20C29.8333 22.2 28.0333 24 25.8333 24ZM11.1667 17.3333H14.5667V21.3333H18.4333V17.3333H21.8333L16.5 12L11.1667 17.3333Z" fill="#2563EB"/>
</g>
<defs>
<clipPath id="clip0_824_453">
<rect width="32" height="32" fill="white" transform="translate(0.5)"/>
</clipPath>
</defs>
</svg>
